<mxfile host="Electron" modified="2025-03-10T20:34:26.792Z" agent="Mozilla/5.0 (Windows NT 10.0; Win64; x64) AppleWebKit/537.36 (KHTML, like Gecko) draw.io/24.6.1 Chrome/124.0.6367.207 Electron/30.0.6 Safari/537.36" etag="2VJh7ZJHtQyVu9e7u3x-" version="24.6.1" type="device">
  <diagram name="Page-1" id="I0cWHwjUqj9UMUNxC99t">
    <mxGraphModel dx="1195" dy="697" grid="1" gridSize="10" guides="1" tooltips="1" connect="1" arrows="1" fold="1" page="1" pageScale="1" pageWidth="1100" pageHeight="850" math="0" shadow="0">
      <root>
        <mxCell id="0" />
        <mxCell id="1" parent="0" />
        <mxCell id="B7dPh3J0UzbKW8L75BRv-18" value="3" style="ellipse;whiteSpace=wrap;html=1;aspect=fixed;" vertex="1" parent="1">
          <mxGeometry x="40" y="440" width="80" height="80" as="geometry" />
        </mxCell>
        <mxCell id="B7dPh3J0UzbKW8L75BRv-19" value="12" style="ellipse;whiteSpace=wrap;html=1;aspect=fixed;" vertex="1" parent="1">
          <mxGeometry x="160" y="440" width="80" height="80" as="geometry" />
        </mxCell>
        <mxCell id="B7dPh3J0UzbKW8L75BRv-26" value="1" style="ellipse;whiteSpace=wrap;html=1;aspect=fixed;" vertex="1" parent="1">
          <mxGeometry x="100" y="320" width="80" height="80" as="geometry" />
        </mxCell>
        <mxCell id="B7dPh3J0UzbKW8L75BRv-35" value="5" style="ellipse;whiteSpace=wrap;html=1;aspect=fixed;" vertex="1" parent="1">
          <mxGeometry x="200" y="200" width="80" height="80" as="geometry" />
        </mxCell>
        <mxCell id="B7dPh3J0UzbKW8L75BRv-45" value="" style="endArrow=classic;html=1;rounded=0;exitX=0;exitY=1;exitDx=0;exitDy=0;" edge="1" parent="1" source="B7dPh3J0UzbKW8L75BRv-26" target="B7dPh3J0UzbKW8L75BRv-18">
          <mxGeometry width="50" height="50" relative="1" as="geometry">
            <mxPoint x="60" y="385" as="sourcePoint" />
            <mxPoint x="-10" y="465" as="targetPoint" />
          </mxGeometry>
        </mxCell>
        <mxCell id="B7dPh3J0UzbKW8L75BRv-46" value="" style="endArrow=classic;html=1;rounded=0;exitX=1;exitY=1;exitDx=0;exitDy=0;entryX=0.375;entryY=0.048;entryDx=0;entryDy=0;entryPerimeter=0;" edge="1" parent="1" source="B7dPh3J0UzbKW8L75BRv-26" target="B7dPh3J0UzbKW8L75BRv-19">
          <mxGeometry width="50" height="50" relative="1" as="geometry">
            <mxPoint x="190" y="360" as="sourcePoint" />
            <mxPoint x="240" y="310" as="targetPoint" />
          </mxGeometry>
        </mxCell>
        <mxCell id="B7dPh3J0UzbKW8L75BRv-47" value="" style="endArrow=classic;html=1;rounded=0;exitX=0;exitY=1;exitDx=0;exitDy=0;entryX=0.5;entryY=0;entryDx=0;entryDy=0;" edge="1" parent="1" source="B7dPh3J0UzbKW8L75BRv-35" target="B7dPh3J0UzbKW8L75BRv-26">
          <mxGeometry width="50" height="50" relative="1" as="geometry">
            <mxPoint x="230" y="340" as="sourcePoint" />
            <mxPoint x="280" y="290" as="targetPoint" />
          </mxGeometry>
        </mxCell>
        <mxCell id="B7dPh3J0UzbKW8L75BRv-48" value="9" style="ellipse;whiteSpace=wrap;html=1;aspect=fixed;" vertex="1" parent="1">
          <mxGeometry x="250" y="440" width="80" height="80" as="geometry" />
        </mxCell>
        <mxCell id="B7dPh3J0UzbKW8L75BRv-50" value="10" style="ellipse;whiteSpace=wrap;html=1;aspect=fixed;" vertex="1" parent="1">
          <mxGeometry x="310" y="320" width="80" height="80" as="geometry" />
        </mxCell>
        <mxCell id="B7dPh3J0UzbKW8L75BRv-51" value="" style="endArrow=classic;html=1;rounded=0;exitX=0;exitY=1;exitDx=0;exitDy=0;" edge="1" parent="1" source="B7dPh3J0UzbKW8L75BRv-50" target="B7dPh3J0UzbKW8L75BRv-48">
          <mxGeometry width="50" height="50" relative="1" as="geometry">
            <mxPoint x="270" y="385" as="sourcePoint" />
            <mxPoint x="200" y="465" as="targetPoint" />
          </mxGeometry>
        </mxCell>
        <mxCell id="B7dPh3J0UzbKW8L75BRv-53" value="" style="endArrow=classic;html=1;rounded=0;exitX=1;exitY=1;exitDx=0;exitDy=0;entryX=0.5;entryY=0;entryDx=0;entryDy=0;" edge="1" parent="1" source="B7dPh3J0UzbKW8L75BRv-35" target="B7dPh3J0UzbKW8L75BRv-50">
          <mxGeometry width="50" height="50" relative="1" as="geometry">
            <mxPoint x="352" y="260" as="sourcePoint" />
            <mxPoint x="280" y="312" as="targetPoint" />
          </mxGeometry>
        </mxCell>
        <mxCell id="B7dPh3J0UzbKW8L75BRv-56" value="8" style="ellipse;whiteSpace=wrap;html=1;aspect=fixed;" vertex="1" parent="1">
          <mxGeometry x="400" y="320" width="80" height="80" as="geometry" />
        </mxCell>
        <mxCell id="B7dPh3J0UzbKW8L75BRv-57" value="0" style="ellipse;whiteSpace=wrap;html=1;aspect=fixed;" vertex="1" parent="1">
          <mxGeometry x="500" y="200" width="80" height="80" as="geometry" />
        </mxCell>
        <mxCell id="B7dPh3J0UzbKW8L75BRv-60" value="" style="endArrow=classic;html=1;rounded=0;exitX=0;exitY=1;exitDx=0;exitDy=0;entryX=0.5;entryY=0;entryDx=0;entryDy=0;" edge="1" parent="1" source="B7dPh3J0UzbKW8L75BRv-57" target="B7dPh3J0UzbKW8L75BRv-56">
          <mxGeometry width="50" height="50" relative="1" as="geometry">
            <mxPoint x="530" y="340" as="sourcePoint" />
            <mxPoint x="580" y="290" as="targetPoint" />
          </mxGeometry>
        </mxCell>
        <mxCell id="B7dPh3J0UzbKW8L75BRv-63" value="-4" style="ellipse;whiteSpace=wrap;html=1;aspect=fixed;" vertex="1" parent="1">
          <mxGeometry x="610" y="320" width="80" height="80" as="geometry" />
        </mxCell>
        <mxCell id="B7dPh3J0UzbKW8L75BRv-66" value="" style="endArrow=classic;html=1;rounded=0;exitX=1;exitY=1;exitDx=0;exitDy=0;entryX=0.5;entryY=0;entryDx=0;entryDy=0;" edge="1" parent="1" source="B7dPh3J0UzbKW8L75BRv-57" target="B7dPh3J0UzbKW8L75BRv-63">
          <mxGeometry width="50" height="50" relative="1" as="geometry">
            <mxPoint x="652" y="260" as="sourcePoint" />
            <mxPoint x="580" y="312" as="targetPoint" />
          </mxGeometry>
        </mxCell>
        <mxCell id="B7dPh3J0UzbKW8L75BRv-80" value="2" style="ellipse;whiteSpace=wrap;html=1;aspect=fixed;" vertex="1" parent="1">
          <mxGeometry x="350" y="80" width="80" height="80" as="geometry" />
        </mxCell>
        <mxCell id="B7dPh3J0UzbKW8L75BRv-81" value="" style="endArrow=classic;html=1;rounded=0;exitX=0;exitY=1;exitDx=0;exitDy=0;entryX=1;entryY=0;entryDx=0;entryDy=0;" edge="1" parent="1" source="B7dPh3J0UzbKW8L75BRv-80" target="B7dPh3J0UzbKW8L75BRv-35">
          <mxGeometry width="50" height="50" relative="1" as="geometry">
            <mxPoint x="360" y="210" as="sourcePoint" />
            <mxPoint x="410" y="160" as="targetPoint" />
          </mxGeometry>
        </mxCell>
        <mxCell id="B7dPh3J0UzbKW8L75BRv-82" value="" style="endArrow=classic;html=1;rounded=0;exitX=1;exitY=1;exitDx=0;exitDy=0;entryX=0;entryY=0;entryDx=0;entryDy=0;" edge="1" parent="1" source="B7dPh3J0UzbKW8L75BRv-80" target="B7dPh3J0UzbKW8L75BRv-57">
          <mxGeometry width="50" height="50" relative="1" as="geometry">
            <mxPoint x="382" y="158" as="sourcePoint" />
            <mxPoint x="278" y="222" as="targetPoint" />
          </mxGeometry>
        </mxCell>
      </root>
    </mxGraphModel>
  </diagram>
</mxfile>
